<svg width="250" height="28" viewBox="0 0 250 28" fill="none" xmlns="http://www.w3.org/2000/svg">
<g clip-path="url(#clip0_2815_23951)">
<path d="M128.642 2.23828C121.448 2.23828 115.621 8.00783 115.621 15.1189C115.621 22.23 121.448 27.9996 128.642 27.9996C135.835 27.9996 141.662 22.23 141.662 15.1189C141.662 8.00783 135.835 2.23828 128.642 2.23828ZM128.642 22.7321C124.592 22.7321 121.308 19.3247 121.308 15.1189C121.308 10.9132 124.592 7.50577 128.642 7.50577C132.691 7.50577 135.975 10.9132 135.975 15.1189C135.975 19.3247 132.691 22.7321 128.642 22.7321Z" fill="#00599A"/>
<path d="M33.5967 5.59523V27.4306H39.1934V18.9203H50.5596V13.9903H39.1934V7.83391H50.9547V2.79688H36.395C34.8477 2.79688 33.5967 4.0479 33.5967 5.59523Z" fill="#00599A"/>
<path d="M60.749 2.79688H55.1523V27.4306H60.749V2.79688Z" fill="#00599A"/>
<path d="M82.8726 18.4759L72.9878 3.89976C72.5187 3.2084 71.7368 2.79688 70.9055 2.79688H66.0742V27.4306H71.6709V11.7598L81.5557 26.336C82.0248 27.0273 82.8067 27.4389 83.638 27.4389H88.4693V2.79688H82.8726V18.4759Z" fill="#00599A"/>
<path d="M105.243 22.7321C101.193 22.7321 97.9095 19.3247 97.9095 15.1189C97.9095 10.9132 101.193 7.50577 105.243 7.50577C107.613 7.50577 109.342 8.44404 111.07 10.1889L114.65 6.15598C111.992 3.35762 108.971 2.23828 105.243 2.23828C98.0495 2.23828 92.2223 8.00783 92.2223 15.1189C92.2223 22.23 98.0495 27.9996 105.243 27.9996C109.317 27.9996 112.296 26.3206 114.873 23.5222L111.235 19.8844C109.506 21.7445 107.613 22.7403 105.243 22.7403V22.7321Z" fill="#00599A"/>
<path d="M5.03711 14.543C7.6214 15.0532 10.0656 15.9588 12.3125 17.1934V27.9912H5.03711V14.543Z" fill="#00599A"/>
<path d="M12.3135 0V9.62988C10.009 8.70811 7.57296 8.04072 5.03809 7.66211V2.23828L1.67969 0.280273V0H12.3135Z" fill="#00599A"/>
<path d="M0 8.84961V14.1829C9.87654 14.1829 18.4362 19.7961 22.6831 28.0019H29.1193C24.2551 16.7344 13.0453 8.84961 0 8.84961Z" fill="#00B9F2"/>
<path d="M15.7617 11.2263C17.416 12.1152 18.9881 13.1358 20.4613 14.2881C24.4284 10.4115 27.3831 5.50617 28.8975 0H23.0539C21.5148 4.2963 18.9963 8.12346 15.7699 11.2263H15.7617Z" fill="#8DC63F"/>
<path d="M157.729 21.5572H156.577L154.89 23.6313V21.5572H153.943V26.3885H154.89V24.1498H154.898L156.585 26.3885H157.812L155.803 23.837L157.729 21.5572Z" fill="#00599A"/>
<path d="M159.466 22.6848C158.429 22.6848 157.631 23.4091 157.631 24.6025C157.631 25.6395 158.306 26.4708 159.466 26.4708C160.626 26.4708 161.31 25.6395 161.31 24.6025C161.31 23.4091 160.511 22.6848 159.466 22.6848ZM159.466 25.7383C158.766 25.7383 158.585 25.0881 158.585 24.4872C158.585 23.944 158.873 23.4091 159.466 23.4091C160.059 23.4091 160.355 23.9276 160.355 24.4872C160.355 25.0881 160.174 25.7383 159.466 25.7383Z" fill="#00599A"/>
<path d="M162.668 23.5901H162.651V22.7671H161.836V26.3885H162.75V25.0551C162.75 24.5366 162.75 23.5819 163.491 23.5819C163.655 23.5819 163.82 23.6066 163.902 23.656V22.7095C163.803 22.6848 163.713 22.6848 163.622 22.6848C163.079 22.6848 162.701 23.2527 162.659 23.5901H162.668Z" fill="#00599A"/>
<path d="M165.779 22.6848C164.684 22.6848 164.149 23.549 164.149 24.5942C164.149 25.7794 164.824 26.4708 165.985 26.4708C166.478 26.4708 166.857 26.372 167.194 26.1827V25.4173C166.857 25.6148 166.47 25.7794 166.026 25.7794C165.458 25.7794 165.063 25.4502 165.022 24.8658H167.45C167.45 23.5984 167.079 22.6765 165.779 22.6765V22.6848ZM165.022 24.2239C165.063 23.7383 165.318 23.3761 165.836 23.3761C166.355 23.3761 166.552 23.7712 166.577 24.2239H165.022Z" fill="#00599A"/>
<path d="M170.989 24.6683V24.2074C170.989 23.1374 170.544 22.6848 169.474 22.6848C169.087 22.6848 168.61 22.7918 168.256 22.9564L168.281 23.763C168.585 23.5243 168.98 23.3679 169.367 23.3679C169.902 23.3679 170.157 23.5654 170.157 24.1498H169.655C169.277 24.1498 168.824 24.1827 168.478 24.3638C168.133 24.5366 167.878 24.8576 167.878 25.4008C167.878 26.0922 168.487 26.479 169.104 26.479C169.524 26.479 169.976 26.2568 170.19 25.8535H170.207C170.207 25.9687 170.207 26.2074 170.248 26.3967H171.054C171.038 26.1169 171.022 25.8617 171.013 25.5901C171.013 25.3267 170.997 25.0469 170.997 24.6848L170.989 24.6683ZM169.96 25.4584C169.82 25.656 169.598 25.7794 169.318 25.7794C168.989 25.7794 168.742 25.6477 168.742 25.335C168.742 24.7753 169.351 24.7095 169.762 24.7095H170.157C170.157 24.9893 170.116 25.2527 169.968 25.4584H169.96Z" fill="#00599A"/>
<path d="M173.795 26.3885H174.733V24.4543H176.643V23.6971H174.733V22.3226H176.692V21.5572H173.795V26.3885Z" fill="#00599A"/>
<path d="M178.363 21.5572H177.45V22.3309H178.363V21.5572Z" fill="#00599A"/>
<path d="M178.363 22.7671H177.45V26.3885H178.363V22.7671Z" fill="#00599A"/>
<path d="M181.236 22.6848C180.758 22.6848 180.371 22.8494 180.083 23.2609H180.067V22.7671H179.203V26.3885H180.116V24.6189C180.116 24.158 180.256 23.4173 180.923 23.4173C181.507 23.4173 181.515 24.0181 181.515 24.4543V26.3885H182.429V24.1004C182.429 23.2856 182.067 22.6765 181.236 22.6765V22.6848Z" fill="#00599A"/>
<path d="M186.1 24.6683V24.2074C186.1 23.1374 185.655 22.6848 184.585 22.6848C184.199 22.6848 183.721 22.7918 183.367 22.9564L183.392 23.763C183.696 23.5243 184.092 23.3679 184.478 23.3679C185.013 23.3679 185.268 23.5654 185.268 24.1498H184.766C184.388 24.1498 183.935 24.1827 183.589 24.3638C183.244 24.5366 182.989 24.8576 182.989 25.4008C182.989 26.0922 183.598 26.479 184.215 26.479C184.635 26.479 185.087 26.2568 185.301 25.8535H185.318C185.318 25.9687 185.318 26.2074 185.359 26.3967H186.166C186.149 26.1169 186.133 25.8617 186.124 25.5901C186.124 25.3267 186.108 25.0469 186.108 24.6848L186.1 24.6683ZM185.079 25.4584C184.939 25.656 184.717 25.7794 184.437 25.7794C184.108 25.7794 183.861 25.6477 183.861 25.335C183.861 24.7753 184.47 24.7095 184.882 24.7095H185.277C185.277 24.9893 185.236 25.2527 185.087 25.4584H185.079Z" fill="#00599A"/>
<path d="M188.923 22.6848C188.445 22.6848 188.059 22.8494 187.771 23.2609H187.754V22.7671H186.89V26.3885H187.803V24.6189C187.803 24.158 187.943 23.4173 188.61 23.4173C189.194 23.4173 189.203 24.0181 189.203 24.4543V26.3885H190.116V24.1004C190.116 23.2856 189.754 22.6765 188.923 22.6765V22.6848Z" fill="#00599A"/>
<path d="M192.511 25.7383C191.869 25.7383 191.565 25.228 191.565 24.5531C191.565 23.8782 191.927 23.4091 192.495 23.4091C192.775 23.4091 192.956 23.4667 193.112 23.5407L193.194 22.7918C192.939 22.7177 192.676 22.6683 192.306 22.6683C191.211 22.6683 190.61 23.4996 190.61 24.5449C190.61 25.6477 191.186 26.4543 192.347 26.4543C192.725 26.4543 192.997 26.4214 193.26 26.3309L193.219 25.549C193.063 25.623 192.775 25.7218 192.52 25.7218L192.511 25.7383Z" fill="#00599A"/>
<path d="M195.153 22.6848C194.059 22.6848 193.524 23.549 193.524 24.5942C193.524 25.7794 194.199 26.4708 195.359 26.4708C195.853 26.4708 196.231 26.372 196.569 26.1827V25.4173C196.231 25.6148 195.845 25.7794 195.4 25.7794C194.832 25.7794 194.437 25.4502 194.396 24.8658H196.824C196.824 23.5984 196.454 22.6765 195.153 22.6765V22.6848ZM194.396 24.2239C194.437 23.7383 194.692 23.3761 195.211 23.3761C195.729 23.3761 195.927 23.7712 195.952 24.2239H194.396Z" fill="#00599A"/>
<path d="M199.474 22.2897V22.7671H198.808V23.442H199.474V26.3885H200.371V23.442H201.153V22.7671H200.371V22.3391C200.371 22.0593 200.462 21.7959 200.766 21.7959C200.964 21.7959 201.079 21.87 201.153 21.9193L201.227 21.1539C201.054 21.1128 200.799 21.0798 200.569 21.0798C199.861 21.0798 199.466 21.5819 199.466 22.2897H199.474Z" fill="#00599A"/>
<path d="M206.347 23.5901H206.33V22.7671H205.515V26.3885H206.429V25.0551C206.429 24.5366 206.429 23.5819 207.17 23.5819C207.334 23.5819 207.499 23.6066 207.581 23.656V22.7095C207.482 22.6848 207.392 22.6848 207.301 22.6848C206.758 22.6848 206.38 23.2527 206.338 23.5901H206.347Z" fill="#00599A"/>
<path d="M212.108 25.7136C211.112 25.7136 210.519 24.9728 210.519 23.9934C210.519 23.014 211.12 22.2403 212.092 22.2403C212.429 22.2403 212.75 22.2897 213.104 22.4955L213.17 21.6807C212.824 21.5407 212.421 21.4831 212.108 21.4831C210.519 21.4831 209.54 22.4132 209.54 24.0675C209.54 25.7218 210.594 26.479 212.108 26.479C212.462 26.479 212.832 26.4132 213.178 26.3309L213.137 25.5243C212.915 25.6395 212.478 25.7218 212.108 25.7218V25.7136Z" fill="#00599A"/>
<path d="M222.297 23.763C222.297 23.4502 222.594 23.3597 222.832 23.3597C223.17 23.3597 223.367 23.4173 223.647 23.516L223.705 22.8082C223.417 22.7424 223.137 22.6765 222.709 22.6765C221.993 22.6765 221.334 23.0222 221.334 23.8041C221.334 25.1128 222.923 24.6272 222.923 25.335C222.923 25.6889 222.552 25.7794 222.322 25.7794C222.009 25.7794 221.705 25.6889 221.425 25.5407L221.367 26.3144C221.705 26.4049 222.059 26.4708 222.404 26.4708C223.145 26.4708 223.878 26.1333 223.878 25.2856C223.878 23.977 222.289 24.3391 222.289 23.763H222.297Z" fill="#00599A"/>
<path d="M227.927 23.5901H227.91V22.7671H227.096V26.3885H228.009V25.0551C228.009 24.5366 228.009 23.5819 228.75 23.5819C228.915 23.5819 229.079 23.6066 229.161 23.656V22.7095C229.063 22.6848 228.972 22.6848 228.882 22.6848C228.338 22.6848 227.96 23.2527 227.919 23.5901H227.927Z" fill="#00599A"/>
<path d="M231.943 24.5366C231.943 24.9975 231.803 25.7383 231.137 25.7383C230.552 25.7383 230.544 25.1374 230.544 24.7012V22.7671H229.631V25.0551C229.631 25.87 229.993 26.479 230.824 26.479C231.301 26.479 231.696 26.2568 231.976 25.9029H231.993V26.3967H232.857V22.7753H231.943V24.5449V24.5366Z" fill="#00599A"/>
<path d="M235.293 25.7383C234.651 25.7383 234.347 25.228 234.347 24.5531C234.347 23.8782 234.709 23.4091 235.277 23.4091C235.557 23.4091 235.738 23.4667 235.894 23.5407L235.976 22.7918C235.721 22.7177 235.458 22.6683 235.087 22.6683C233.993 22.6683 233.392 23.4996 233.392 24.5449C233.392 25.6477 233.968 26.4543 235.129 26.4543C235.507 26.4543 235.779 26.4214 236.042 26.3309L236.001 25.549C235.845 25.623 235.557 25.7218 235.301 25.7218L235.293 25.7383Z" fill="#00599A"/>
<path d="M238.306 25.73C237.96 25.73 237.878 25.442 237.878 25.1292V23.442H238.692V22.7506H237.878V21.7218L236.964 22.0263V22.7506H236.338V23.442H236.964V25.2856C236.964 26.0016 237.359 26.4626 238.075 26.4626C238.347 26.4626 238.561 26.4379 238.75 26.3802L238.725 25.6313C238.626 25.6971 238.47 25.73 238.306 25.73Z" fill="#00599A"/>
<path d="M240.149 21.5572H239.236V22.3309H240.149V21.5572Z" fill="#00599A"/>
<path d="M240.149 22.7588H239.236V26.3802H240.149V22.7588Z" fill="#00599A"/>
<path d="M226.116 25.73C225.771 25.73 225.688 25.442 225.688 25.1292V23.442H226.503V22.7506H225.688V21.7218L224.775 22.0263V22.7506H224.149V23.442H224.775V25.2856C224.775 26.0016 225.17 26.4626 225.886 26.4626C226.157 26.4626 226.371 26.4379 226.561 26.3802L226.536 25.6313C226.437 25.6971 226.281 25.73 226.116 25.73Z" fill="#00599A"/>
<path d="M242.52 22.6683C241.482 22.6683 240.684 23.3926 240.684 24.586C240.684 25.623 241.359 26.4543 242.52 26.4543C243.68 26.4543 244.363 25.623 244.363 24.586C244.363 23.3926 243.565 22.6683 242.52 22.6683ZM242.52 25.73C241.82 25.73 241.639 25.0798 241.639 24.479C241.639 23.9358 241.927 23.4008 242.52 23.4008C243.112 23.4008 243.408 23.9193 243.408 24.479C243.408 25.0798 243.227 25.73 242.52 25.73Z" fill="#00599A"/>
<path d="M246.923 22.6683C246.445 22.6683 246.059 22.8329 245.771 23.2444H245.754V22.7506H244.89V26.372H245.803V24.6025C245.803 24.1416 245.943 23.4008 246.61 23.4008C247.194 23.4008 247.203 24.0016 247.203 24.4379V26.372H248.116V24.0839C248.116 23.2691 247.754 22.6601 246.923 22.6601V22.6683Z" fill="#00599A"/>
<path d="M203.153 22.6683C202.116 22.6683 201.318 23.3926 201.318 24.586C201.318 25.623 201.993 26.4543 203.153 26.4543C204.314 26.4543 204.997 25.623 204.997 24.586C204.997 23.3926 204.199 22.6683 203.153 22.6683ZM203.153 25.73C202.454 25.73 202.273 25.0798 202.273 24.479C202.273 23.9358 202.561 23.4008 203.153 23.4008C203.746 23.4008 204.042 23.9193 204.042 24.479C204.042 25.0798 203.861 25.73 203.153 25.73Z" fill="#00599A"/>
<path d="M215.186 22.6683C214.149 22.6683 213.351 23.3926 213.351 24.586C213.351 25.623 214.026 26.4543 215.186 26.4543C216.347 26.4543 217.03 25.623 217.03 24.586C217.03 23.3926 216.231 22.6683 215.186 22.6683ZM215.186 25.73C214.487 25.73 214.306 25.0798 214.306 24.479C214.306 23.9358 214.594 23.4008 215.186 23.4008C215.779 23.4008 216.075 23.9193 216.075 24.479C216.075 25.0798 215.894 25.73 215.186 25.73Z" fill="#00599A"/>
<path d="M219.598 22.6683C219.12 22.6683 218.733 22.8329 218.445 23.2444H218.429V22.7506H217.565V26.372H218.478V24.6025C218.478 24.1416 218.618 23.4008 219.285 23.4008C219.869 23.4008 219.878 24.0016 219.878 24.4379V26.372H220.791V24.0839C220.791 23.2691 220.429 22.6601 219.598 22.6601V22.6683Z" fill="#00599A"/>
<path d="M192.593 9.26469C193.926 10.8779 195.704 11.3058 195.704 11.3058L196.486 10.3264C196.486 10.3264 194.626 9.64329 193.531 7.48691C193.77 6.77909 193.918 5.96427 193.918 5.01777V4.90254L191.992 4.68855V5.50337C191.992 5.50337 191.959 9.28115 188.634 10.4746L189.375 11.5528C189.375 11.5528 191.251 11.0425 192.593 9.27292V9.26469Z" fill="#00599A"/>
<path d="M206.93 12.6639C204.412 12.6639 202.626 13.9972 202.626 15.882C202.626 17.7667 204.412 19.1001 206.93 19.1001C209.449 19.1001 211.235 17.7667 211.235 15.882C211.235 13.9972 209.449 12.6639 206.93 12.6639ZM206.93 17.7914C205.507 17.7914 204.494 17.0013 204.494 15.882C204.494 14.7626 205.498 13.9725 206.93 13.9725C208.363 13.9725 209.358 14.7626 209.358 15.882C209.358 17.0013 208.354 17.7914 206.93 17.7914Z" fill="#00599A"/>
<path d="M156.083 13.8573L154.19 13.5774V18.7544H162.799V17.4211H156.083V13.8573Z" fill="#00599A"/>
<path d="M167.556 14.3511L165.663 14.0713V18.7544H174.486V17.4293H167.556V14.3511Z" fill="#00599A"/>
<path d="M164.412 12.6639H169.383V15.7421L171.268 15.6021V12.6639H175.465V11.3388H164.412V12.6639Z" fill="#00599A"/>
<path d="M158.807 12.3182L159.589 11.3388C159.589 11.3388 157.885 10.5322 156.914 8.88608C157.531 7.85728 157.951 6.52394 157.951 5.03423H152.239V6.36757H155.828C155.704 7.28115 155.046 9.9725 151.474 11.3717L152.198 12.4499C152.198 12.4499 154.14 11.9314 155.77 10.3346C157.004 11.775 158.815 12.3182 158.815 12.3182H158.807Z" fill="#00599A"/>
<path d="M183.103 5.03423H177.391V6.36757H180.98C180.856 7.28115 180.181 9.9725 176.609 11.3717L177.35 12.4499C177.35 12.4499 183.103 10.8614 183.103 5.03423Z" fill="#00599A"/>
<path d="M217.334 10.3429C217.951 9.00131 218.395 7.25645 218.395 5.03423H213.828V6.32641H216.527C216.461 7.45399 215.959 11.1495 213.046 13.454L213.86 14.3182C213.86 14.3182 215.21 13.6597 216.437 11.9149C217.531 13.561 218.593 14.1207 218.593 14.1207L219.408 13.2565C219.408 13.2565 217.984 12.063 217.342 10.3346L217.334 10.3429Z" fill="#00599A"/>
<path d="M160.634 14.6968L162.519 14.5569V4.61448L160.634 4.33464V7.83259H158.527V9.19884H160.634V14.6968Z" fill="#00599A"/>
<path d="M180.996 13.8573L179.111 13.5774V18.7544H187.721V17.4211H180.996V13.8573Z" fill="#00599A"/>
<path d="M193.457 16.1618H199.828V12.4581H191.564V13.7585H197.935V14.9025H191.564V18.7544H200.107V17.4622H193.457V16.1618Z" fill="#00599A"/>
<path d="M207.103 7.76674L205.218 7.55275V10.2853H201.572V11.6104H212.354V10.2853H207.103V7.76674Z" fill="#00599A"/>
<path d="M209.416 9.30584L211.301 9.16592V4.7544H202.766V6.05481H209.416V9.30584Z" fill="#00599A"/>
<path d="M226.412 10.6721L226.98 11.7503C226.98 11.7503 229.646 11.5774 232.05 10.2359C234.363 11.561 236.264 11.6104 236.264 11.6104L236.832 10.6145C235.202 10.2606 234.157 9.49514 233.679 9.07538C234.667 8.21119 235.35 7.10831 235.622 5.61859C235.622 5.61859 235.688 5.28115 235.688 5.05069H227.4V6.34287H233.177C232.873 7.28938 231.663 9.65152 226.404 10.6886L226.412 10.6721Z" fill="#00599A"/>
<path d="M183.095 9.65975H185.548V14.6968L187.441 14.5569V4.61448L185.548 4.33464V8.29349H183.095V9.65975Z" fill="#00599A"/>
<path d="M248.116 7.55275V4.61448L246.231 4.33464V12.1783L248.116 12.0383V8.91901H249.943V7.55275H248.116Z" fill="#00599A"/>
<path d="M232.511 12.1783L230.618 12.0383V15.3223H226.14V16.6556H236.988V15.3223H232.511V12.1783Z" fill="#00599A"/>
<path d="M244.7 8.2688C244.7 7.43752 244.313 6.77909 243.86 6.33464H245.12V5.04246H242.354V3.92312L240.461 3.7832V5.04246H237.696V6.33464H238.955C238.502 6.77909 238.107 7.44576 238.107 8.2688C238.107 10.1042 239.474 11.4046 241.4 11.4046C243.325 11.4046 244.692 10.1042 244.692 8.2688H244.7ZM239.869 8.2688C239.869 7.17415 240.511 6.40049 241.408 6.40049C242.305 6.40049 242.947 7.17415 242.947 8.2688C242.947 9.36345 242.305 10.1453 241.408 10.1453C240.511 10.1453 239.869 9.37168 239.869 8.2688Z" fill="#00599A"/>
<path d="M246.231 14.5569H241.679V13.1577L239.786 12.8779V18.7544H248.116V13.1577L246.223 12.8779V14.5569H246.231ZM246.231 17.4211H241.679V15.849H246.231V17.4211Z" fill="#00599A"/>
<path d="M222.675 18.1947L224.461 18.0548V4.61448L222.675 4.33464V18.1947Z" fill="#00599A"/>
<path d="M197.935 11.7585L199.828 11.6186V4.61448L197.935 4.33464V7.06715H195.556V8.43341H197.935V11.7585Z" fill="#00599A"/>
<path d="M219.91 9.05892H218.272V10.3923H219.91V17.775L221.663 17.6351V4.7544L219.91 4.47456V9.05892Z" fill="#00599A"/>
<path d="M174.206 4.7544H165.671V9.86551H174.206V4.7544ZM172.321 8.53218H167.564V6.0795H172.321V8.53218Z" fill="#00599A"/>
</g>
<defs>
<clipPath id="clip0_2815_23951">
<rect width="250" height="28" fill="white"/>
</clipPath>
</defs>
</svg>
